<?xml version="1.0"?>
<svg xmlns="http://www.w3.org/2000/svg" viewBox="0 0 32 32">
    <path style="text-indent:0;text-align:start;line-height:normal;text-transform:none;block-progression:tb;-inkscape-font-specification:Bitstream Vera Sans" d="M 24.78125 5.78125 L 22.125 8.4375 L 21.6875 7.96875 C 20.715388 6.996638 19.437997 6.5 18.15625 6.5 C 16.874503 6.5 15.597112 6.996638 14.625 7.96875 L 13.90625 8.65625 L 13 9.5625 L 12.21875 8.78125 L 10.78125 10.21875 L 21.78125 21.21875 L 23.21875 19.78125 L 22.4375 19 L 24.03125 17.375 C 25.975474 15.430776 25.975474 12.256724 24.03125 10.3125 L 23.5625 9.875 L 26.21875 7.21875 L 24.78125 5.78125 z M 18.15625 8.5 C 18.923806 8.5 19.691362 8.785112 20.28125 9.375 L 22.625 11.71875 C 23.804776 12.898526 23.804776 14.788974 22.625 15.96875 L 21 17.5625 L 14.4375 11 L 16.03125 9.375 C 16.621138 8.785112 17.388694 8.5 18.15625 8.5 z M 10.21875 10.78125 L 8.78125 12.21875 L 9.5625 13 L 8.65625 13.90625 L 7.96875 14.625 C 6.024526 16.569224 6.024526 19.743276 7.96875 21.6875 L 8.40625 22.15625 L 5.78125 24.78125 L 7.21875 26.21875 L 9.84375 23.59375 L 10.3125 24.03125 C 12.256724 25.975474 15.430776 25.975474 17.375 24.03125 L 19 22.4375 L 19.78125 23.21875 L 21.21875 21.78125 L 10.21875 10.78125 z M 11 14.4375 L 17.5625 21 L 15.96875 22.625 C 14.788974 23.804776 12.898526 23.804776 11.71875 22.625 L 9.375 20.28125 C 8.195224 19.101474 8.195224 17.211026 9.375 16.03125 L 11 14.4375 z" overflow="visible" font-family="Bitstream Vera Sans"/>
</svg>
